HIERARCHY
ROOT Hips
{
	OFFSET 0.00000 0.00000 0.00000
	CHANNELS 6 Xposition Yposition Zposition Zrotation Yrotation Xrotation 
	JOINT LHipJoint
	{
		OFFSET 0 0 0
		CHANNELS 3 Zrotation Yrotation Xrotation
		JOINT LeftUpLeg
		{
			OFFSET 1.37590 -1.78394 0.89329
			CHANNELS 3 Zrotation Yrotation Xrotation
			JOINT LeftLeg
			{
				OFFSET 2.47928 -6.81178 0.00000
				CHANNELS 3 Zrotation Yrotation Xrotation
				JOINT LeftFoot
				{
					OFFSET 2.63345 -7.23535 0.00000
					CHANNELS 3 Zrotation Yrotation Xrotation
					JOINT LeftToeBase
					{
						OFFSET 0.23938 -0.65768 2.27012
						CHANNELS 3 Zrotation Yrotation Xrotation
						End Site
						{
							OFFSET 0.00000 -0.00000 1.18363
						}
					}
				}
			}
		}
	}
	JOINT RHipJoint
	{
		OFFSET 0 0 0
		CHANNELS 3 Zrotation Yrotation Xrotation
		JOINT RightUpLeg
		{
			OFFSET -1.33617 -1.78394 0.89329
			CHANNELS 3 Zrotation Yrotation Xrotation
			JOINT RightLeg
			{
				OFFSET -2.56922 -7.05888 0.00000
				CHANNELS 3 Zrotation Yrotation Xrotation
				JOINT RightFoot
				{
					OFFSET -2.56568 -7.04915 0.00000
					CHANNELS 3 Zrotation Yrotation Xrotation
					JOINT RightToeBase
					{
						OFFSET -0.27533 -0.75646 2.18105
						CHANNELS 3 Zrotation Yrotation Xrotation
						End Site
						{
							OFFSET -0.00000 -0.00000 1.15233
						}
					}
				}
			}
		}
	}
	JOINT LowerBack
	{
		OFFSET 0 0 0
		CHANNELS 3 Zrotation Yrotation Xrotation
		JOINT Spine
		{
			OFFSET 0.06190 2.15152 -0.00935
			CHANNELS 3 Zrotation Yrotation Xrotation
			JOINT Spine1
			{
				OFFSET 0.06334 2.15332 0.00872
				CHANNELS 3 Zrotation Yrotation Xrotation
				JOINT Neck
				{
					OFFSET 0 0 0
					CHANNELS 3 Zrotation Yrotation Xrotation
					JOINT Neck1
					{
						OFFSET -0.04202 1.66908 0.23524
						CHANNELS 3 Zrotation Yrotation Xrotation
						JOINT Head
						{
							OFFSET 0.07510 1.69357 -0.24440
							CHANNELS 3 Zrotation Yrotation Xrotation
							End Site
							{
								OFFSET 0.02556 1.71719 -0.11000
							}
						}
					}
				}
				JOINT LeftShoulder
				{
					OFFSET 0 0 0
					CHANNELS 3 Zrotation Yrotation Xrotation
					JOINT LeftArm
					{
						OFFSET 3.67168 1.26306 -0.41342
						CHANNELS 3 Zrotation Yrotation Xrotation
						JOINT LeftForeArm
						{
							OFFSET 4.68510 -0.00000 -0.00000
							CHANNELS 3 Zrotation Yrotation Xrotation
							JOINT LeftHand
							{
								OFFSET 3.39626 -0.00000 -0.00000
								CHANNELS 3 Zrotation Yrotation Xrotation
								JOINT LeftFingerBase
								{
									OFFSET 0 0 0
									CHANNELS 3 Zrotation Yrotation Xrotation
									JOINT LeftHandIndex1
									{
										OFFSET 0.48608 -0.00000 -0.00000
										CHANNELS 3 Zrotation Yrotation Xrotation
										End Site
										{
											OFFSET 0.39189 -0.00000 -0.00000
										}
									}
								}
								JOINT LThumb
								{
									OFFSET 0 0 0
									CHANNELS 3 Zrotation Yrotation Xrotation
									End Site
									{
										OFFSET 0.39787 -0.00000 0.39787
									}
								}
							}
						}
					}
				}
				JOINT RightShoulder
				{
					OFFSET 0 0 0
					CHANNELS 3 Zrotation Yrotation Xrotation
					JOINT RightArm
					{
						OFFSET -3.04136 1.42992 -0.76390
						CHANNELS 3 Zrotation Yrotation Xrotation
						JOINT RightForeArm
						{
							OFFSET -5.55576 -0.00000 -0.00000
							CHANNELS 3 Zrotation Yrotation Xrotation
							JOINT RightHand
							{
								OFFSET -3.32774 -0.00000 -0.00000
								CHANNELS 3 Zrotation Yrotation Xrotation
								JOINT RightFingerBase
								{
									OFFSET 0 0 0
									CHANNELS 3 Zrotation Yrotation Xrotation
									JOINT RightHandIndex1
									{
										OFFSET -0.50763 -0.00000 -0.00000
										CHANNELS 3 Zrotation Yrotation Xrotation
										End Site
										{
											OFFSET -0.40926 -0.00000 -0.00000
										}
									}
								}
								JOINT RThumb
								{
									OFFSET 0 0 0
									CHANNELS 3 Zrotation Yrotation Xrotation
									End Site
									{
										OFFSET -0.41551 -0.00000 0.41551
									}
								}
							}
						}
					}
				}
			}
		}
	}
}
MOTION
Frames: 5
Frame Time: .0083333
-17.4264 17.7888 3.5823 -598.3100 -90.9300 604.3310 0.0000 0.0000 0.0000 -18.3947 -5.0988 1.6093 2.7783 10.3272 30.0429 0.0918 -4.0021 -5.6778 1.2715 -7.1468 -20.1510 0.0000 0.0000 0.0000 14.5654 10.0160 -27.2380 -0.8965 -6.0348 16.8854 0.6874 -14.5269 -6.4011 -0.4148 -4.1342 11.4545 1.4513 -1.6551 -1.5920 3.0684 -2.2686 -1.1777 2.3015 -1.1530 -0.2464 -0.0850 3.7804 -18.4156 -0.3895 5.1327 28.6861 0.6497 2.0251 12.5957 -0.0000 0.0000 0.0000 -93.8783 -0.2630 -9.4095 11.0944 -18.4327 -1.8056 -0.0000 -0.0000 17.2143 9.3883 32.1474 5.0277 -7.1250 0.0000 -0.0000 -26.3047 60.5126 -10.3667 -0.0000 0.0000 0.0000 86.2476 -13.1192 -8.1432 -12.7718 20.9519 -2.3711 0.0000 0.0000 9.8514 -12.7897 -31.3165 6.7292 7.1250 -0.0000 -0.0000 22.0420 -60.5722 -8.6117
-17.5880 17.7964 3.5542 -615.9410 -91.1220 621.9530 0.0000 0.0000 0.0000 -17.9419 -5.0751 1.0281 3.0308 10.7448 31.4239 0.0613 -3.7660 -4.7899 1.2668 -7.1340 -20.1131 0.0000 0.0000 0.0000 15.1531 10.0651 -26.8029 -0.9060 -6.0657 16.9752 0.6584 -14.2220 -6.1955 -0.4471 -4.2901 11.8943 1.7422 -1.5350 -1.5687 3.1357 -2.1149 -1.1483 2.2103 -1.0787 -0.2419 -0.1760 3.6853 -18.4469 -0.3197 5.0033 28.6975 0.6716 1.9671 12.6015 0.0000 -0.0000 0.0000 -94.1568 0.9461 -12.4558 10.5093 -17.5323 -1.6250 -0.0000 -0.0000 19.1278 9.4876 32.8912 5.1856 -7.1250 0.0000 -0.0000 -26.8888 61.1917 -11.0537 0.0000 -0.0000 0.0000 86.2091 -12.9779 -7.1875 -13.1752 21.5434 -2.5173 0.0000 0.0000 9.1179 -12.7189 -31.1767 6.6644 7.1250 -0.0000 -0.0000 22.0014 -60.4271 -8.5185
-17.7494 17.8050 3.5260 -627.8030 -91.3956 633.8040 0.0000 0.0000 0.0000 -17.4724 -5.0526 0.3939 3.3005 11.1664 32.8430 0.0353 -3.5176 -3.8773 1.2517 -7.0929 -19.9910 0.0000 0.0000 0.0000 15.7593 10.1083 -26.3445 -0.9161 -6.0986 17.0708 0.6291 -13.9079 -6.0017 -0.4814 -4.4495 12.3449 2.0374 -1.4100 -1.5438 3.2023 -1.9546 -1.1194 2.1161 -1.0012 -0.2378 -0.2733 3.5851 -18.4754 -0.2441 4.8669 28.7057 0.6955 1.9061 12.6052 -0.0000 0.0000 0.0000 -94.4142 2.1350 -15.7245 9.9692 -16.6914 -1.4661 -0.0000 -0.0000 21.1486 9.5892 33.6442 5.3474 -7.1250 0.0000 -0.0000 -27.5133 61.8756 -11.7803 -0.0000 0.0000 0.0000 86.1622 -12.8352 -6.2304 -13.5929 22.1498 -2.6727 0.0000 0.0000 8.4152 -12.6554 -31.0345 6.6034 7.1250 -0.0000 -0.0000 21.9520 -60.2815 -8.4216
-17.9102 17.8147 3.4977 -635.4630 -91.7138 641.4530 0.0000 0.0000 0.0000 -16.9893 -5.0366 -0.2968 3.5874 11.5901 34.2969 0.0142 -3.2612 -2.9505 1.2270 -7.0253 -19.7903 0.0000 0.0000 0.0000 16.3763 10.1462 -25.8661 -0.9263 -6.1313 17.1659 0.6002 -13.5911 -5.8235 -0.5180 -4.6130 12.8081 2.3323 -1.2817 -1.5183 3.2678 -1.7901 -1.0921 2.0208 -0.9214 -0.2346 -0.3758 3.4786 -18.5049 -0.1644 4.7221 28.7125 0.7206 1.8415 12.6086 0.0000 0.0000 0.0000 -94.6477 3.3049 -19.1925 9.4776 -15.9183 -1.3281 -0.0000 -0.0000 23.2767 9.7018 34.3913 5.5159 -7.1250 0.0000 -0.0000 -28.1567 62.5523 -12.5303 0.0000 0.0000 0.0000 86.1069 -12.6941 -5.2682 -14.0279 22.7746 -2.8389 0.0000 0.0000 7.7377 -12.6031 -30.8909 6.5483 7.1250 -0.0000 -0.0000 21.8905 -60.1372 -8.3209
-18.0705 17.8253 3.4694 -640.5880 -92.0596 646.5650 0.0000 0.0000 0.0000 -16.4911 -5.0245 -1.0383 3.8903 12.0129 35.7777 -0.0014 -3.0002 -2.0208 1.1936 -6.9324 -19.5152 0.0000 0.0000 0.0000 17.0058 10.1807 -25.3626 -0.9356 -6.1614 17.2534 0.5718 -13.2729 -5.6602 -0.5568 -4.7796 13.2810 2.6295 -1.1496 -1.4909 3.3322 -1.6204 -1.0650 1.9232 -0.8392 -0.2316 -0.4843 3.3664 -18.5345 -0.0793 4.5693 28.7169 0.7474 1.7735 12.6111 0.0000 -0.0000 0.0000 -94.8552 4.4558 -22.8226 9.0383 -15.2215 -1.2102 -0.0000 -0.0000 25.4941 9.8280 35.1332 5.6931 -7.1250 0.0000 -0.0000 -28.8187 63.2238 -13.3054 0.0000 -0.0000 0.0000 86.0428 -12.5513 -4.3137 -14.4769 23.4124 -3.0150 0.0000 0.0000 7.0932 -12.5633 -30.7470 6.4999 7.1250 -0.0000 -0.0000 21.8169 -59.9955 -8.2170
